<mxfile host="Electron" modified="2023-12-13T15:36:29.106Z" agent="Mozilla/5.0 (Windows NT 10.0; Win64; x64) AppleWebKit/537.36 (KHTML, like Gecko) draw.io/22.1.2 Chrome/114.0.5735.289 Electron/25.9.4 Safari/537.36" etag="pUz3tuzWtJcZBsgWqvtD" version="22.1.2" type="device">
  <diagram name="Trang-1" id="tiZvxmdg7R74BT522XDS">
    <mxGraphModel dx="690" dy="809" grid="1" gridSize="10" guides="1" tooltips="1" connect="1" arrows="1" fold="1" page="1" pageScale="1" pageWidth="827" pageHeight="1169" math="0" shadow="0">
      <root>
        <mxCell id="0" />
        <mxCell id="1" parent="0" />
        <mxCell id="H1APLqMwlIIGxxztSZLg-1" value="Người dùng" style="shape=umlActor;verticalLabelPosition=bottom;verticalAlign=top;html=1;fillColor=#fff2cc;strokeColor=#d6b656;" vertex="1" parent="1">
          <mxGeometry x="104" y="360" width="30" height="60" as="geometry" />
        </mxCell>
        <mxCell id="H1APLqMwlIIGxxztSZLg-2" value=":Search Page" style="html=1;whiteSpace=wrap;fillColor=#fff2cc;strokeColor=#d6b656;" vertex="1" parent="1">
          <mxGeometry x="254" y="365" width="110" height="50" as="geometry" />
        </mxCell>
        <mxCell id="H1APLqMwlIIGxxztSZLg-3" value=":Shopping Cart" style="html=1;whiteSpace=wrap;fillColor=#fff2cc;strokeColor=#d6b656;" vertex="1" parent="1">
          <mxGeometry x="544" y="365" width="110" height="50" as="geometry" />
        </mxCell>
        <mxCell id="H1APLqMwlIIGxxztSZLg-4" value="" style="endArrow=none;html=1;rounded=0;entryX=0;entryY=0.5;entryDx=0;entryDy=0;exitX=0.5;exitY=0.5;exitDx=0;exitDy=0;exitPerimeter=0;" edge="1" parent="1" source="H1APLqMwlIIGxxztSZLg-1" target="H1APLqMwlIIGxxztSZLg-2">
          <mxGeometry width="50" height="50" relative="1" as="geometry">
            <mxPoint x="264" y="460" as="sourcePoint" />
            <mxPoint x="314" y="410" as="targetPoint" />
          </mxGeometry>
        </mxCell>
        <mxCell id="H1APLqMwlIIGxxztSZLg-5" value="" style="endArrow=none;html=1;rounded=0;entryX=1;entryY=0.5;entryDx=0;entryDy=0;exitX=0;exitY=0.5;exitDx=0;exitDy=0;" edge="1" parent="1" source="H1APLqMwlIIGxxztSZLg-3" target="H1APLqMwlIIGxxztSZLg-2">
          <mxGeometry width="50" height="50" relative="1" as="geometry">
            <mxPoint x="264" y="460" as="sourcePoint" />
            <mxPoint x="314" y="410" as="targetPoint" />
          </mxGeometry>
        </mxCell>
        <mxCell id="H1APLqMwlIIGxxztSZLg-6" value="1: Tìm kiếm khóa học" style="html=1;verticalAlign=bottom;endArrow=block;curved=0;rounded=0;fillColor=#dae8fc;strokeColor=#6c8ebf;" edge="1" parent="1">
          <mxGeometry y="10" width="80" relative="1" as="geometry">
            <mxPoint x="154" y="380" as="sourcePoint" />
            <mxPoint x="244" y="380" as="targetPoint" />
            <mxPoint as="offset" />
          </mxGeometry>
        </mxCell>
        <mxCell id="H1APLqMwlIIGxxztSZLg-8" value="2.1: Thêm khóa học vào giỏ hàng&lt;br&gt;2.2: Xóa / Cập nhật giỏ hàng" style="html=1;verticalAlign=bottom;endArrow=block;curved=0;rounded=0;fillColor=#dae8fc;strokeColor=#6c8ebf;" edge="1" parent="1">
          <mxGeometry y="10" width="80" relative="1" as="geometry">
            <mxPoint x="384" y="380" as="sourcePoint" />
            <mxPoint x="524" y="380" as="targetPoint" />
            <mxPoint as="offset" />
          </mxGeometry>
        </mxCell>
        <mxCell id="H1APLqMwlIIGxxztSZLg-9" value="4.1: Trả về kết quả thanh toán đơn hàng" style="html=1;verticalAlign=bottom;endArrow=open;dashed=1;endSize=8;curved=0;rounded=0;fillColor=#d5e8d4;strokeColor=#82b366;" edge="1" parent="1">
          <mxGeometry x="-0.8959" y="-77" relative="1" as="geometry">
            <mxPoint x="314" y="580" as="sourcePoint" />
            <mxPoint x="184" y="440" as="targetPoint" />
            <mxPoint y="-1" as="offset" />
          </mxGeometry>
        </mxCell>
        <mxCell id="H1APLqMwlIIGxxztSZLg-14" value=":Payment Gateway" style="html=1;whiteSpace=wrap;fillColor=#fff2cc;strokeColor=#d6b656;" vertex="1" parent="1">
          <mxGeometry x="324" y="585" width="110" height="50" as="geometry" />
        </mxCell>
        <mxCell id="H1APLqMwlIIGxxztSZLg-15" value="" style="endArrow=none;html=1;rounded=0;entryX=1;entryY=0.5;entryDx=0;entryDy=0;exitX=0.5;exitY=1;exitDx=0;exitDy=0;" edge="1" parent="1" source="H1APLqMwlIIGxxztSZLg-3" target="H1APLqMwlIIGxxztSZLg-14">
          <mxGeometry width="50" height="50" relative="1" as="geometry">
            <mxPoint x="554" y="400" as="sourcePoint" />
            <mxPoint x="374" y="400" as="targetPoint" />
          </mxGeometry>
        </mxCell>
        <mxCell id="H1APLqMwlIIGxxztSZLg-17" value="3: Xác nhận thanh toán" style="html=1;verticalAlign=bottom;endArrow=block;curved=0;rounded=0;fillColor=#dae8fc;strokeColor=#6c8ebf;" edge="1" parent="1">
          <mxGeometry x="0.5398" y="-48" width="80" relative="1" as="geometry">
            <mxPoint x="564" y="440" as="sourcePoint" />
            <mxPoint x="494" y="520" as="targetPoint" />
            <mxPoint as="offset" />
          </mxGeometry>
        </mxCell>
        <mxCell id="H1APLqMwlIIGxxztSZLg-18" value="" style="endArrow=none;html=1;rounded=0;entryX=0;entryY=0.5;entryDx=0;entryDy=0;exitX=0.5;exitY=0.5;exitDx=0;exitDy=0;exitPerimeter=0;" edge="1" parent="1" source="H1APLqMwlIIGxxztSZLg-1" target="H1APLqMwlIIGxxztSZLg-14">
          <mxGeometry width="50" height="50" relative="1" as="geometry">
            <mxPoint x="129" y="400" as="sourcePoint" />
            <mxPoint x="264" y="400" as="targetPoint" />
          </mxGeometry>
        </mxCell>
        <mxCell id="H1APLqMwlIIGxxztSZLg-19" value="Database" style="html=1;whiteSpace=wrap;fillColor=#fff2cc;strokeColor=#d6b656;" vertex="1" parent="1">
          <mxGeometry x="644" y="585" width="110" height="50" as="geometry" />
        </mxCell>
        <mxCell id="H1APLqMwlIIGxxztSZLg-20" value="" style="endArrow=none;html=1;rounded=0;entryX=1;entryY=0.5;entryDx=0;entryDy=0;exitX=0;exitY=0.5;exitDx=0;exitDy=0;" edge="1" parent="1" source="H1APLqMwlIIGxxztSZLg-19" target="H1APLqMwlIIGxxztSZLg-14">
          <mxGeometry width="50" height="50" relative="1" as="geometry">
            <mxPoint x="609" y="425" as="sourcePoint" />
            <mxPoint x="444" y="620" as="targetPoint" />
          </mxGeometry>
        </mxCell>
        <mxCell id="H1APLqMwlIIGxxztSZLg-21" value="4.2: Lưu thông tin đơn hàng" style="html=1;verticalAlign=bottom;endArrow=block;curved=0;rounded=0;fillColor=#dae8fc;strokeColor=#6c8ebf;" edge="1" parent="1">
          <mxGeometry y="10" width="80" relative="1" as="geometry">
            <mxPoint x="474" y="600" as="sourcePoint" />
            <mxPoint x="614" y="600" as="targetPoint" />
            <mxPoint x="-1" as="offset" />
          </mxGeometry>
        </mxCell>
        <mxCell id="H1APLqMwlIIGxxztSZLg-22" value=":Course Page" style="html=1;whiteSpace=wrap;fillColor=#fff2cc;strokeColor=#d6b656;" vertex="1" parent="1">
          <mxGeometry x="114" y="585" width="110" height="50" as="geometry" />
        </mxCell>
        <mxCell id="H1APLqMwlIIGxxztSZLg-23" value="" style="endArrow=none;html=1;rounded=0;entryX=0;entryY=0.5;entryDx=0;entryDy=0;exitX=0.5;exitY=0.5;exitDx=0;exitDy=0;exitPerimeter=0;edgeStyle=orthogonalEdgeStyle;" edge="1" parent="1" source="H1APLqMwlIIGxxztSZLg-1" target="H1APLqMwlIIGxxztSZLg-22">
          <mxGeometry width="50" height="50" relative="1" as="geometry">
            <mxPoint x="129" y="400" as="sourcePoint" />
            <mxPoint x="264" y="400" as="targetPoint" />
            <Array as="points">
              <mxPoint x="74" y="390" />
              <mxPoint x="74" y="610" />
            </Array>
          </mxGeometry>
        </mxCell>
        <mxCell id="H1APLqMwlIIGxxztSZLg-24" value="5: Đánh giá khóa học" style="html=1;verticalAlign=bottom;endArrow=block;curved=0;rounded=0;fillColor=#dae8fc;strokeColor=#6c8ebf;" edge="1" parent="1">
          <mxGeometry x="0.1538" y="60" width="80" relative="1" as="geometry">
            <mxPoint x="84" y="455" as="sourcePoint" />
            <mxPoint x="84" y="585" as="targetPoint" />
            <mxPoint as="offset" />
          </mxGeometry>
        </mxCell>
      </root>
    </mxGraphModel>
  </diagram>
</mxfile>
